<svg xmlns="http://www.w3.org/2000/svg" width="850" height="388" viewBox="0 0 850 388" fill="none"><path d="M850 375.5C850 382.404 659.721 388 425 388C190.279 388 0 382.404 0 375.5C0 368.596 190.279 363 425 363C659.721 363 850 368.596 850 375.5Z" fill="#F0F0F0"/><path d="M632.253 302.946H788.178V373.821H632.253V302.946Z" fill="#3B9D56"/><path d="M535.267 302.947H691.192V373.822H535.267V302.947Z" fill="#8DC69D"/><path d="M535.267 305.931H692.684V307.423H535.267V305.931Z" fill="url(#paint0_linear_1584_725)"/><path d="M535.267 313.391H692.684V314.883H535.267V313.391Z" fill="url(#paint1_linear_1584_725)"/><path d="M535.267 335.773H692.684V337.265H535.267V335.773Z" fill="url(#paint2_linear_1584_725)"/><path d="M535.267 350.694H692.684V352.186H535.267V350.694Z" fill="url(#paint3_linear_1584_725)"/><path d="M535.267 368.599H692.684V370.091H535.267V368.599Z" fill="url(#paint4_linear_1584_725)"/><path d="M788.179 305.931H691.192V307.423H788.179V305.931Z" fill="url(#paint5_linear_1584_725)"/><path d="M788.179 313.391H691.192V314.883H788.179V313.391Z" fill="url(#paint6_linear_1584_725)"/><path d="M788.179 335.773H691.192V337.265H788.179V335.773Z" fill="url(#paint7_linear_1584_725)"/><path d="M788.179 350.694H691.192V352.186H788.179V350.694Z" fill="url(#paint8_linear_1584_725)"/><path d="M788.179 368.599H691.192V370.091H788.179V368.599Z" fill="url(#paint9_linear_1584_725)"/><path d="M596.443 302.946H629.27V373.821H596.443V302.946Z" fill="#F0F0F0"/><path d="M599.427 302.946H600.919V373.821H599.427V302.946Z" fill="#FF9175"/><path d="M624.792 302.946H626.285V373.821H624.792V302.946Z" fill="#FF9175"/><path d="M624.294 232.201H780.22V303.076H624.294V232.201Z" fill="#3B9D56"/><path d="M527.308 232.201H683.233V303.076H527.308V232.201Z" fill="#8DC69D"/><path d="M527.308 235.185H684.725V236.677H527.308V235.185Z" fill="url(#paint10_linear_1584_725)"/><path d="M527.308 242.646H684.725V244.138H527.308V242.646Z" fill="url(#paint11_linear_1584_725)"/><path d="M527.308 265.027H684.725V266.519H527.308V265.027Z" fill="url(#paint12_linear_1584_725)"/><path d="M527.308 279.948H684.725V281.44H527.308V279.948Z" fill="url(#paint13_linear_1584_725)"/><path d="M527.308 297.854H684.725V299.346H527.308V297.854Z" fill="url(#paint14_linear_1584_725)"/><path d="M780.22 235.185H683.233V236.677H780.22V235.185Z" fill="url(#paint15_linear_1584_725)"/><path d="M780.22 242.646H683.233V244.138H780.22V242.646Z" fill="url(#paint16_linear_1584_725)"/><path d="M780.22 265.027H683.233V266.519H780.22V265.027Z" fill="url(#paint17_linear_1584_725)"/><path d="M780.22 279.948H683.233V281.44H780.22V279.948Z" fill="url(#paint18_linear_1584_725)"/><path d="M780.22 297.854H683.233V299.346H780.22V297.854Z" fill="url(#paint19_linear_1584_725)"/><path d="M588.485 232.201H621.311V303.076H588.485V232.201Z" fill="#F0F0F0"/><path d="M591.469 232.201H592.961V303.076H591.469V232.201Z" fill="#FF9175"/><path d="M616.834 232.201H618.326V303.076H616.834V232.201Z" fill="#FF9175"/><path d="M399.019 139.565C399.019 130.744 406.169 123.594 414.99 123.594H535.892C544.713 123.594 551.864 130.744 551.864 139.565V365.298C551.864 374.119 544.713 381.27 535.892 381.27H414.99C406.169 381.27 399.019 374.119 399.019 365.298V139.565Z" fill="#040505"/><path d="M391.016 135.597C391.016 128.968 396.39 123.594 403.02 123.594H531.858C538.487 123.594 543.861 128.968 543.861 135.597V369.266C543.861 375.896 538.487 381.27 531.858 381.27H403.02C396.39 381.27 391.016 375.896 391.016 369.266V135.597Z" fill="#474747"/><path d="M396.618 140.398C396.618 135.979 400.2 132.396 404.62 132.396H431.132C431.649 132.396 432.089 132.77 432.173 133.28C432.582 135.784 434.716 137.641 437.252 137.701L449.733 137.998H467.439H485.144L497.626 137.701C500.162 137.641 502.295 135.784 502.705 133.28C502.788 132.77 503.229 132.396 503.745 132.396H530.257C534.677 132.396 538.26 135.979 538.26 140.398V364.465C538.26 368.884 534.677 372.467 530.257 372.467H404.62C400.2 372.467 396.618 368.884 396.618 364.465V140.398Z" fill="#F0F0F0"/><path d="M398.218 140.398C398.218 135.979 401.801 132.396 406.221 132.396H431.132C431.649 132.396 432.09 132.77 432.173 133.28C432.582 135.784 434.716 137.641 437.252 137.701L449.734 137.998H467.439H485.144L497.626 137.701C500.162 137.641 502.296 135.784 502.705 133.28C502.788 132.77 503.229 132.396 503.746 132.396H530.257C534.677 132.396 538.26 135.979 538.26 140.398V364.465C538.26 368.884 534.677 372.467 530.257 372.467H406.221C401.801 372.467 398.218 368.884 398.218 364.465V140.398Z" fill="white"/><path d="M547.062 163.205C547.062 161.659 548.316 160.405 549.863 160.405C551.41 160.405 552.664 161.659 552.664 163.205V197.616C552.664 199.162 551.41 200.416 549.863 200.416C548.316 200.416 547.062 199.162 547.062 197.616V163.205Z" fill="#474747"/><path d="M547.062 215.221C547.062 213.674 548.316 212.42 549.863 212.42C551.41 212.42 552.664 213.674 552.664 215.221V235.227C552.664 236.774 551.41 238.028 549.863 238.028C548.316 238.028 547.062 236.774 547.062 235.227V215.221Z" fill="#474747"/><path d="M423.15 190C421.366 190 419.92 191.444 419.92 193.226V197.526C419.92 199.297 421.349 200.734 423.118 200.752V216.261H413.928C410.102 216.261 407 219.358 407 223.179C407 227.001 410.102 230.098 413.928 230.098C417.755 230.098 420.857 227.001 420.857 223.179H423.118V248.451H423.122C423.119 248.657 423.118 248.863 423.118 249.07C423.118 270.705 438.342 288.79 458.677 293.221C458.133 294.491 457.832 295.888 457.832 297.356C457.832 301.122 459.813 304.426 462.792 306.286V319.349C451.202 320.729 442.53 326.317 442.53 333H494.211C494.211 326.317 485.539 320.729 473.95 319.349V306.286C476.928 304.426 478.909 301.122 478.909 297.356C478.909 295.888 478.608 294.491 478.065 293.221C498.399 288.79 513.624 270.705 513.624 249.07C513.624 248.863 513.623 248.657 513.62 248.451H513.624V223.179H515.885C515.885 227.001 518.987 230.098 522.813 230.098C526.64 230.098 529.742 227.001 529.742 223.179C529.742 219.358 526.64 216.261 522.813 216.261H513.624V200.752C515.393 200.734 516.821 199.297 516.821 197.526V193.226C516.821 191.444 515.375 190 513.591 190H423.15Z" fill="#FFD400"/><path d="M661.295 102.345L652.755 133.125L591.194 116.044L599.735 85.2643L661.295 102.345Z" fill="#3B9D56"/><path fill-rule="evenodd" clip-rule="evenodd" d="M651.272 130.504L658.674 103.828L601.217 87.8857L593.816 114.562L651.272 130.504ZM661.295 102.345L599.735 85.2643L591.194 116.044L652.755 133.125L661.295 102.345Z" fill="#8DC69D"/><path d="M623.476 120.294C614.287 117.745 608.182 110.836 609.839 104.863C611.496 98.8906 620.289 96.1155 629.477 98.6651C638.666 101.215 644.772 108.123 643.115 114.096C641.457 120.069 632.665 122.844 623.476 120.294Z" fill="#8DC69D"/><path d="M533.655 13.9226L556.448 55.4281L473.437 101.014L450.644 59.5084L533.655 13.9226Z" fill="#3B9D56"/><path fill-rule="evenodd" clip-rule="evenodd" d="M553.556 54.5865L532.813 16.8143L453.536 60.35L474.278 98.1222L553.556 54.5865ZM533.655 13.9226L450.644 59.5084L473.437 101.014L556.448 55.4281L533.655 13.9226Z" fill="#8DC69D"/><path d="M512.095 72.1127C499.704 78.9171 486.074 77.9042 481.651 69.8502C477.228 61.7962 483.688 49.7511 496.078 42.9467C508.469 36.1423 522.099 37.1553 526.522 45.2092C530.945 53.2632 524.486 65.3083 512.095 72.1127Z" fill="#8DC69D"/><path d="M398.354 2.20801L431.837 35.691L364.872 102.657L331.389 69.174L398.354 2.20801Z" fill="#3B9D56"/><path fill-rule="evenodd" clip-rule="evenodd" d="M428.826 35.691L398.354 5.21966L334.4 69.174L364.872 99.6453L428.826 35.691ZM398.354 2.20801L331.389 69.174L364.872 102.657L431.837 35.691L398.354 2.20801Z" fill="#8DC69D"/><path d="M393.914 64.1048C383.918 74.1005 370.548 76.9366 364.05 70.4394C357.553 63.9422 360.389 50.5719 370.385 40.5762C380.381 30.5805 393.751 27.7443 400.248 34.2416C406.745 40.7388 403.909 54.109 393.914 64.1048Z" fill="#8DC69D"/><path d="M385.586 84.5537L416.055 134.862L315.438 195.8L284.969 145.491L385.586 84.5537Z" fill="#3B9D56"/><path fill-rule="evenodd" clip-rule="evenodd" d="M413.13 134.144L384.868 87.4784L287.893 146.21L316.156 192.875L413.13 134.144ZM385.586 84.5537L284.969 145.491L315.438 195.8L416.055 134.862L385.586 84.5537Z" fill="#8DC69D"/><path d="M361.892 157.9C346.873 166.996 329.905 166.456 323.992 156.694C318.08 146.931 325.462 131.644 340.481 122.548C355.5 113.452 372.468 113.992 378.38 123.754C384.292 133.517 376.91 148.804 361.892 157.9Z" fill="#8DC69D"/><path d="M279.691 27.7268L330.093 58.0412L269.464 158.845L219.063 128.53L279.691 27.7268Z" fill="#3B9D56"/><path fill-rule="evenodd" clip-rule="evenodd" d="M327.171 58.7685L280.419 30.6493L221.985 127.803L268.737 155.922L327.171 58.7685ZM279.691 27.7268L219.063 128.53L269.464 158.845L330.093 58.0412L279.691 27.7268Z" fill="#8DC69D"/><path d="M292.905 103.664C283.856 118.711 268.591 126.14 258.81 120.258C249.03 114.375 248.438 97.409 257.488 82.3624C266.538 67.3158 281.803 59.8868 291.583 65.7692C301.363 71.6515 301.955 88.6178 292.905 103.664Z" fill="#8DC69D"/><path d="M308.294 240.8C296.36 302.845 236.388 343.469 174.343 331.535C112.297 319.601 71.6741 259.629 83.608 197.584C89.308 167.949 105.967 143.202 128.576 126.734C134.546 122.385 154.971 110.688 176.111 98.8767C203.458 83.5976 232.002 68.1275 232.002 68.1275C232.002 68.1275 203.097 104.067 217.559 106.849C226.867 108.639 246.678 87.5339 271.024 83.6319C283.536 81.6267 311.933 98.0562 329.31 100.344C357.938 104.112 375.95 78.8148 375.95 78.8148C375.95 78.8148 359.602 114.348 339.212 124.248C323.803 131.729 312.21 134.46 307.139 145.579C301.938 156.984 299.565 170.424 301.482 174.991C303.63 180.105 310.436 170.309 326.414 164.786C343.044 159.038 371.274 149.915 371.274 149.915C371.274 149.915 348.365 165.949 330.623 187.095C320.978 198.591 309.042 236.908 308.294 240.8Z" fill="url(#paint20_linear_1584_725)"/><path d="M295.186 225.812C295.186 284.618 247.514 332.29 188.708 332.29C129.902 332.29 82.2305 284.618 82.2305 225.812C82.2305 167.006 129.902 119.334 188.708 119.334C247.514 119.334 295.186 167.006 295.186 225.812Z" fill="#040505"/><path d="M167.835 317.122C167.939 317.205 168.027 317.307 168.097 317.42C169.393 319.509 171.691 320.787 174.173 320.787L201.612 320.787C204.094 320.787 206.392 319.509 207.688 317.42C207.758 317.307 207.845 317.205 207.95 317.122L228.489 300.876C228.594 300.793 228.683 300.692 228.746 300.574C229.921 298.417 229.888 295.803 228.647 293.67L207.792 263.013C206.517 260.823 204.161 259.473 201.612 259.473H174.173C171.623 259.473 169.268 260.823 167.993 263.013L147.137 293.67C145.897 295.803 145.864 298.417 147.038 300.574C147.102 300.692 147.191 300.793 147.296 300.876L167.835 317.122Z" fill="white"/><path d="M235.889 285.955C235.918 285.998 235.949 286.039 235.984 286.076C237.663 287.885 240.166 288.699 242.596 288.23C242.678 288.214 242.758 288.186 242.833 288.151L269.443 275.508C269.519 275.472 269.598 275.446 269.68 275.427C272.117 274.867 274.084 273.081 274.858 270.715L283.327 244.819C284.095 242.473 283.574 239.903 281.965 238.035C281.884 237.941 281.817 237.836 281.77 237.722L270.679 210.763C270.632 210.649 270.566 210.543 270.481 210.454C268.793 208.69 266.308 207.908 263.9 208.389C263.847 208.399 263.796 208.414 263.746 208.433L229.923 221.127C229.873 221.146 229.821 221.161 229.769 221.172C227.312 221.72 225.325 223.514 224.546 225.895L216.077 251.79C215.298 254.171 215.846 256.782 217.512 258.657C217.546 258.696 217.578 258.736 217.607 258.779L235.889 285.955Z" fill="white"/><path d="M217.222 207.767C219.237 209.317 221.932 209.684 224.292 208.728L256.832 198.44C259.149 197.502 260.798 195.43 261.185 192.985C261.2 192.893 261.2 192.799 261.188 192.706L257.81 166.012C257.798 165.92 257.799 165.826 257.81 165.733C258.1 163.274 257.073 160.839 255.096 159.318L233.414 142.633C231.436 141.111 228.802 140.73 226.473 141.621C226.387 141.654 226.298 141.678 226.206 141.69L201.077 144.863C200.985 144.874 200.896 144.897 200.811 144.934C198.519 145.914 196.905 148.014 196.566 150.475L192.843 184.527C192.497 187.033 193.525 189.532 195.54 191.082L217.222 207.767Z" fill="white"/><path d="M187.144 150.722C187.155 150.643 187.158 150.563 187.15 150.484C186.913 148.065 185.441 145.935 183.253 144.844C183.159 144.797 183.057 144.767 182.952 144.752L151.347 140.195C151.243 140.18 151.141 140.149 151.044 140.106C148.774 139.096 146.131 139.333 144.077 140.739L121.487 156.194C119.427 157.603 118.265 159.978 118.415 162.449C118.421 162.542 118.417 162.635 118.4 162.726L113.509 189.588C113.493 189.68 113.488 189.773 113.497 189.865C113.746 192.329 115.275 194.489 117.535 195.554L149.456 207.237C151.758 208.322 154.47 208.106 156.569 206.67L179.158 191.215C181.224 189.802 182.387 187.419 182.229 184.94C182.224 184.861 182.226 184.781 182.237 184.702L187.144 150.722Z" fill="white"/><path d="M152.904 222.991C152.13 220.609 150.147 218.811 147.691 218.259C147.639 218.247 147.587 218.232 147.537 218.213L113.725 205.468C113.675 205.449 113.624 205.433 113.571 205.423C111.165 204.937 108.677 205.715 106.986 207.475C106.9 207.564 106.834 207.67 106.787 207.784L95.6577 234.708C95.6105 234.822 95.5431 234.927 95.4622 235.02C93.8487 236.886 93.3235 239.454 94.0865 241.802L102.505 267.714C103.274 270.082 105.238 271.872 107.674 272.436C107.755 272.455 107.835 272.482 107.91 272.518L134.51 285.212C134.585 285.248 134.664 285.275 134.746 285.291C137.175 285.765 139.68 284.956 141.362 283.151C141.397 283.113 141.429 283.072 141.458 283.029L159.779 255.889C159.808 255.846 159.84 255.805 159.875 255.767C161.544 253.895 162.097 251.285 161.323 248.903L152.904 222.991Z" fill="white"/><defs><linearGradient id="paint0_linear_1584_725" x1="692.684" y1="338.011" x2="535.267" y2="373.448" gradientUnits="userSpaceOnUse"><stop stop-color="#3B9D56"/><stop offset="1" stop-color="#3B9D56" stop-opacity="0"/></linearGradient><linearGradient id="paint1_linear_1584_725" x1="692.684" y1="338.011" x2="535.267" y2="373.448" gradientUnits="userSpaceOnUse"><stop stop-color="#3B9D56"/><stop offset="1" stop-color="#3B9D56" stop-opacity="0"/></linearGradient><linearGradient id="paint2_linear_1584_725" x1="692.684" y1="338.011" x2="535.267" y2="373.448" gradientUnits="userSpaceOnUse"><stop stop-color="#3B9D56"/><stop offset="1" stop-color="#3B9D56" stop-opacity="0"/></linearGradient><linearGradient id="paint3_linear_1584_725" x1="692.684" y1="338.011" x2="535.267" y2="373.448" gradientUnits="userSpaceOnUse"><stop stop-color="#3B9D56"/><stop offset="1" stop-color="#3B9D56" stop-opacity="0"/></linearGradient><linearGradient id="paint4_linear_1584_725" x1="692.684" y1="338.011" x2="535.267" y2="373.448" gradientUnits="userSpaceOnUse"><stop stop-color="#3B9D56"/><stop offset="1" stop-color="#3B9D56" stop-opacity="0"/></linearGradient><linearGradient id="paint5_linear_1584_725" x1="691.192" y1="338.011" x2="755.657" y2="352.523" gradientUnits="userSpaceOnUse"><stop stop-color="#8DC69D"/><stop offset="1" stop-color="#8DC69D" stop-opacity="0.24"/></linearGradient><linearGradient id="paint6_linear_1584_725" x1="691.192" y1="338.011" x2="755.657" y2="352.523" gradientUnits="userSpaceOnUse"><stop stop-color="#8DC69D"/><stop offset="1" stop-color="#8DC69D" stop-opacity="0.24"/></linearGradient><linearGradient id="paint7_linear_1584_725" x1="691.192" y1="338.011" x2="755.657" y2="352.523" gradientUnits="userSpaceOnUse"><stop stop-color="#8DC69D"/><stop offset="1" stop-color="#8DC69D" stop-opacity="0.24"/></linearGradient><linearGradient id="paint8_linear_1584_725" x1="691.192" y1="338.011" x2="755.657" y2="352.523" gradientUnits="userSpaceOnUse"><stop stop-color="#8DC69D"/><stop offset="1" stop-color="#8DC69D" stop-opacity="0.24"/></linearGradient><linearGradient id="paint9_linear_1584_725" x1="691.192" y1="338.011" x2="755.657" y2="352.523" gradientUnits="userSpaceOnUse"><stop stop-color="#8DC69D"/><stop offset="1" stop-color="#8DC69D" stop-opacity="0.24"/></linearGradient><linearGradient id="paint10_linear_1584_725" x1="684.725" y1="267.265" x2="527.308" y2="302.703" gradientUnits="userSpaceOnUse"><stop stop-color="#3B9D56"/><stop offset="1" stop-color="#3B9D56" stop-opacity="0"/></linearGradient><linearGradient id="paint11_linear_1584_725" x1="684.725" y1="267.265" x2="527.308" y2="302.703" gradientUnits="userSpaceOnUse"><stop stop-color="#3B9D56"/><stop offset="1" stop-color="#3B9D56" stop-opacity="0"/></linearGradient><linearGradient id="paint12_linear_1584_725" x1="684.725" y1="267.265" x2="527.308" y2="302.703" gradientUnits="userSpaceOnUse"><stop stop-color="#3B9D56"/><stop offset="1" stop-color="#3B9D56" stop-opacity="0"/></linearGradient><linearGradient id="paint13_linear_1584_725" x1="684.725" y1="267.265" x2="527.308" y2="302.703" gradientUnits="userSpaceOnUse"><stop stop-color="#3B9D56"/><stop offset="1" stop-color="#3B9D56" stop-opacity="0"/></linearGradient><linearGradient id="paint14_linear_1584_725" x1="684.725" y1="267.265" x2="527.308" y2="302.703" gradientUnits="userSpaceOnUse"><stop stop-color="#3B9D56"/><stop offset="1" stop-color="#3B9D56" stop-opacity="0"/></linearGradient><linearGradient id="paint15_linear_1584_725" x1="683.233" y1="267.265" x2="747.699" y2="281.778" gradientUnits="userSpaceOnUse"><stop stop-color="#8DC69D"/><stop offset="1" stop-color="#8DC69D" stop-opacity="0.24"/></linearGradient><linearGradient id="paint16_linear_1584_725" x1="683.233" y1="267.265" x2="747.699" y2="281.778" gradientUnits="userSpaceOnUse"><stop stop-color="#8DC69D"/><stop offset="1" stop-color="#8DC69D" stop-opacity="0.24"/></linearGradient><linearGradient id="paint17_linear_1584_725" x1="683.233" y1="267.265" x2="747.699" y2="281.778" gradientUnits="userSpaceOnUse"><stop stop-color="#8DC69D"/><stop offset="1" stop-color="#8DC69D" stop-opacity="0.24"/></linearGradient><linearGradient id="paint18_linear_1584_725" x1="683.233" y1="267.265" x2="747.699" y2="281.778" gradientUnits="userSpaceOnUse"><stop stop-color="#8DC69D"/><stop offset="1" stop-color="#8DC69D" stop-opacity="0.24"/></linearGradient><linearGradient id="paint19_linear_1584_725" x1="683.233" y1="267.265" x2="747.699" y2="281.778" gradientUnits="userSpaceOnUse"><stop stop-color="#8DC69D"/><stop offset="1" stop-color="#8DC69D" stop-opacity="0.24"/></linearGradient><linearGradient id="paint20_linear_1584_725" x1="376.109" y1="86.3262" x2="100.351" y2="287.303" gradientUnits="userSpaceOnUse"><stop offset="0.411418" stop-color="#FFD400"/><stop offset="1" stop-color="#FF3400" stop-opacity="0.49"/></linearGradient></defs></svg>